# xmcd
#
# Track frame offsets:
#	150
#	15902
#	30725
#	44442
#	64460
#	80587
#	94370
#	111350
#	128610
#	138142
#	152565
#	161025
#	174575
#	189582
#	205077
#	219722
#
# Disc length: 3131
#
# Revision: 1
# Processed by: cddbd v1.5.1PL0 Copyright (c) Steve Scherf et al.
# Submitted via: dBpowerAMP V4.0
# Normalized: r0:TRMNUM
#
DISCID=dd0c3910
DTITLE=Varios - Cabral - As Melhores do Verão 2004
DYEAR=2004
DGENRE=Samba
TTITLE0=mexa amor - é o tchan
TTITLE1=bala bom bom - manerada
TTITLE2=la vai bomba - tchakabum
TTITLE3=é saudade - inimigos do hp
TTITLE4=no mexe mexe - axe blond
TTITLE5=quero ver bumbum tremer - os sungas
TTITLE6=arrasta - baton na cueca
TTITLE7=so pro meu prazer - keito moleque
TTITLE8=mascarada - beto jamaica
TTITLE9=vai e vem - thimbahia
TTITLE10=swing baratinha - swing baratinha
TTITLE11=apaixonado por voce - nova onda
TTITLE12=vida boa - vagabundos
TTITLE13=deixa rolar - kebrai
TTITLE14=encarcalo dente - patchanka
TTITLE15=vamos correr correr - levada louca
EXTD=cabral as melhores do verão 2004
EXTT0=
EXTT1=
EXTT2=
EXTT3=
EXTT4=
EXTT5=
EXTT6=
EXTT7=
EXTT8=
EXTT9=
EXTT10=
EXTT11=
EXTT12=
EXTT13=
EXTT14=
EXTT15=
PLAYORDER=
